<!--
Copyright 2025 Specter Ops, Inc.

Licensed under the Apache License, Version 2.0
you may not use this file except in compliance with the License.
You may obtain a copy of the License at

    http://www.apache.org/licenses/LICENSE-2.0

Unless required by applicable law or agreed to in writing, software
distributed under the License is distributed on an "AS IS" BASIS,
WITHOUT WARRANTIES OR CONDITIONS OF ANY KIND, either express or implied.
See the License for the specific language governing permissions and
limitations under the License.

SPDX-License-Identifier: Apache-2.0
-->
<svg width="62" height="62" fill="none" xmlns="http://www.w3.org/2000/svg">
    <style>
        :root{ color: #111111; }
        @media (prefers-color-scheme: dark){ :root{ color: #ffffff; } svg{ filter: invert(1) hue-rotate(180deg) saturate(1); } }
    </style>
<path d="M19.484 25.4028V27.5661L21.0195 29.4345L25.9855 29.6639V25.4028L22.6857 23.5344L19.484 25.4028Z" fill="#09B36B"></path>
<path d="M30.5593 25.4028V29.7295L35.4272 29.4345L37.0935 27.5661V25.4028L33.7937 23.5344L30.5593 25.4028Z" fill="#09B36B"></path>
<path d="M50.5864 43.3979L46.6006 41.1034L46.6333 41.0706V20.0271L40.9812 16.8476L36.7341 14.4548L28.3704 9.75773L20.1374 14.445L15.8902 16.8706L14.8447 17.4606L10.8916 15.1333L12.1984 14.3794L18.4058 10.8066L28.2724 5.1688L38.3349 10.8394L44.5423 14.3467L50.5537 17.7228L55.0296 15.1333V15.1006L46.7313 10.4461L40.5238 6.93881L28.2724 0.0554199L16.2169 6.97159L10.0095 10.5444L2.03784 15.1006V15.1989L10.4669 20.05V40.9297L28.5664 51.3859L42.1901 43.6503L46.1105 45.9775L28.5991 55.9093L6.57906 43.1914L2.10318 45.7808L28.5664 61.0554L50.5537 48.567L55.095 45.9775V45.9447L50.5864 43.388V43.3979ZM14.9101 38.35V22.6166L18.1118 20.781L22.359 18.3554L28.3704 14.9137L34.5451 18.3882L38.7923 20.781L42.1901 22.6821V38.5467L28.5664 46.2823L14.9101 38.35Z" fill="white"></path>
<path d="M51.5665 22.4854V38.7433L56.3038 41.1689V19.7976L51.5665 22.4854Z" fill="white"></path>
<path d="M5.17421 22.4854L0.404297 19.7976V41.1689L5.17421 38.7433V22.4854Z" fill="white"></path>
</svg>
